<?xml version="1.0" encoding="UTF-8" standalone="no"?>
<!-- Created with Inkscape (http://www.inkscape.org/) -->

<svg
   xmlns:dc="http://purl.org/dc/elements/1.1/"
   xmlns:cc="http://creativecommons.org/ns#"
   xmlns:rdf="http://www.w3.org/1999/02/22-rdf-syntax-ns#"
   xmlns:svg="http://www.w3.org/2000/svg"
   xmlns="http://www.w3.org/2000/svg"
   xmlns:sodipodi="http://sodipodi.sourceforge.net/DTD/sodipodi-0.dtd"
   xmlns:inkscape="http://www.inkscape.org/namespaces/inkscape"
   width="210mm"
   height="297mm"
   id="svg2"
   version="1.1"
   inkscape:version="0.48.5 r10040"
   sodipodi:docname="Nouveau document 1">
  <defs
     id="defs4" />
  <sodipodi:namedview
     id="base"
     pagecolor="#ffffff"
     bordercolor="#666666"
     borderopacity="1.0"
     inkscape:pageopacity="0.0"
     inkscape:pageshadow="2"
     inkscape:zoom="1.4"
     inkscape:cx="315.88481"
     inkscape:cy="810.53646"
     inkscape:document-units="px"
     inkscape:current-layer="layer1"
     showgrid="false"
     inkscape:window-width="1920"
     inkscape:window-height="1026"
     inkscape:window-x="1676"
     inkscape:window-y="-4"
     inkscape:window-maximized="1" />
  <metadata
     id="metadata7">
    <rdf:RDF>
      <cc:Work
         rdf:about="">
        <dc:format>image/svg+xml</dc:format>
        <dc:type
           rdf:resource="http://purl.org/dc/dcmitype/StillImage" />
        <dc:title></dc:title>
      </cc:Work>
    </rdf:RDF>
  </metadata>
  <g
     inkscape:label="Calque 1"
     inkscape:groupmode="layer"
     id="layer1">
    <rect
       style="fill:#c17d11;fill-opacity:1;stroke:none"
       id="rect2985"
       width="52.022858"
       height="62.124382"
       x="345.7247"
       y="12.410135"
       rx="9.8489876"
       ry="9.8489876" />
    <text
       xml:space="preserve"
       style="font-size:13.32601833px;font-style:normal;font-weight:normal;line-height:125%;letter-spacing:0px;word-spacing:0px;fill:#ffffff;fill-opacity:1;stroke:none;font-family:Sans"
       x="370.64584"
       y="40.189323"
       id="text2987"
       sodipodi:linespacing="125%"><tspan
         sodipodi:role="line"
         id="tspan2989"
         x="370.64584"
         y="40.189323"
         style="text-align:center;text-anchor:middle">raw</tspan><tspan
         sodipodi:role="line"
         x="370.64584"
         y="56.846844"
         id="tspan2991"
         style="text-align:center;text-anchor:middle">DATA</tspan></text>
    <path
       style="fill:#2e3436;fill-opacity:1;stroke:none"
       d="m 375.64277,81.101669 0,37.843751 -0.0312,0 0,18.0625 5.1875,-8.96875 5.21875,-9.09375 -7.71875,0 0,-37.843751 -2.65625,0 z"
       id="rect2993"
       inkscape:connector-curvature="0" />
    <path
       inkscape:connector-curvature="0"
       id="path3007"
       d="m 366.03611,137.00792 0,-37.843751 0.0312,0 0,-18.0625 -5.1875,8.96875 -5.21875,9.09375 7.71875,0 0,37.843751 2.65625,0 z"
       style="fill:#2e3436;fill-opacity:1;stroke:none" />
    <rect
       ry="9.8489876"
       rx="9.8489876"
       y="145.24519"
       x="345.7247"
       height="62.124382"
       width="52.022858"
       id="rect3009"
       style="fill:#a40000;fill-opacity:1;stroke:none" />
    <text
       sodipodi:linespacing="125%"
       id="text3011"
       y="180.52438"
       x="370.64584"
       style="font-size:13.32601833px;font-style:normal;font-weight:normal;line-height:125%;letter-spacing:0px;word-spacing:0px;fill:#ffffff;fill-opacity:1;stroke:none;font-family:Sans"
       xml:space="preserve"><tspan
         style="text-align:center;text-anchor:middle"
         id="tspan3015"
         y="180.52438"
         x="370.64584"
         sodipodi:role="line">Model</tspan></text>
    <path
       inkscape:connector-curvature="0"
       id="path3025"
       d="m 375.64277,81.101669 0,37.843751 -0.0312,0 0,18.0625 5.1875,-8.96875 5.21875,-9.09375 -7.71875,0 0,-37.843751 -2.65625,0 z"
       style="fill:#2e3436;fill-opacity:1;stroke:none" />
    <path
       style="fill:#2e3436;fill-opacity:1;stroke:none"
       d="m 366.03611,137.00792 0,-37.843751 0.0312,0 0,-18.0625 -5.1875,8.96875 -5.21875,9.09375 7.71875,0 0,37.843751 2.65625,0 z"
       id="path3027"
       inkscape:connector-curvature="0" />
    <text
       xml:space="preserve"
       style="font-size:11.19481659px;font-style:normal;font-weight:normal;line-height:125%;letter-spacing:0px;word-spacing:0px;fill:#000000;fill-opacity:1;stroke:none;font-family:Sans"
       x="286.12601"
       y="307.14648"
       id="text3029"
       sodipodi:linespacing="125%"><tspan
         sodipodi:role="line"
         x="286.12601"
         y="307.14648"
         id="tspan3035">Image = draw(start, end, width)  </tspan></text>
    <path
       inkscape:connector-curvature="0"
       id="path3143"
       d="m 375.64277,228.58394 0,37.84375 -0.0312,0 0,18.0625 5.1875,-8.96875 5.21875,-9.09375 -7.71875,0 0,-37.84375 -2.65625,0 z"
       style="fill:#2e3436;fill-opacity:1;stroke:none" />
    <path
       style="fill:#2e3436;fill-opacity:1;stroke:none"
       d="m 366.03611,284.49019 0,-37.84375 0.0312,0 0,-18.0625 -5.1875,8.96875 -5.21875,9.09375 7.71875,0 0,37.84375 2.65625,0 z"
       id="path3145"
       inkscape:connector-curvature="0" />
    <path
       style="fill:#2e3436;fill-opacity:1;stroke:none"
       d="m 375.64277,228.58394 0,37.84375 -0.0312,0 0,18.0625 5.1875,-8.96875 5.21875,-9.09375 -7.71875,0 0,-37.84375 -2.65625,0 z"
       id="path3147"
       inkscape:connector-curvature="0" />
    <path
       inkscape:connector-curvature="0"
       id="path3149"
       d="m 366.03611,284.49019 0,-37.84375 0.0312,0 0,-18.0625 -5.1875,8.96875 -5.21875,9.09375 7.71875,0 0,37.84375 2.65625,0 z"
       style="fill:#2e3436;fill-opacity:1;stroke:none" />
    <rect
       ry="0"
       rx="0"
       y="368.81042"
       x="225.65991"
       height="94.66713"
       width="291.59506"
       id="rect3153"
       style="fill:#eeeeec;fill-opacity:1;stroke:none" />
    <text
       xml:space="preserve"
       style="font-size:23.16316986px;font-style:normal;font-weight:normal;line-height:125%;letter-spacing:0px;word-spacing:0px;fill:#204a87;fill-opacity:1;stroke:none;font-family:Sans"
       x="299.18811"
       y="516.21765"
       id="text3155"
       sodipodi:linespacing="125%"><tspan
         sodipodi:role="line"
         id="tspan3157"
         x="299.18811"
         y="516.21765">visible area</tspan></text>
    <g
       id="g3098"
       transform="matrix(2.5028651,0,0,2.5028651,332.24628,378.84915)"
       style="fill:#4e9a06">
      <g
         id="g3048"
         style="fill:#4e9a06">
        <g
           id="g3050"
           style="fill:#4e9a06">
          <path
             id="path3052"
             d="m 69.712205,31.516449 -106.87645,0 c -0.49,0 -0.887,-0.397 -0.887,-0.887 l 0,-29.2830003 c 0,-0.48999996 0.397,-0.88799996 0.887,-0.88799996 l 106.87645,0 c 0.49,0 0.887,0.398 0.887,0.88799996 l 0,29.2830003 c 0,0.49 -0.397,0.887 -0.887,0.887 z m -105.98845,-1.773 105.10145,0 0,-27.5100003 -105.10145,0 z"
             style="fill:#4e9a06"
             inkscape:connector-curvature="0"
             sodipodi:nodetypes="sssssssssccccc" />
        </g>
        <g
           id="g3054"
           style="fill:#4e9a06"
           transform="translate(-38.051245,0.45844874)">
          <path
             id="path3056"
             d="M 0.887,31.058 C 0.676,31.058 0.464,30.984 0.294,30.831 -0.07,30.504 -0.1,29.942 0.227,29.578 l 8.874,-9.88 c 0.16,-0.178 0.384,-0.283 0.623,-0.293 0.233,-0.012 0.471,0.076 0.645,0.238 l 2.308,2.166 6.991,-6.912 c 0.335,-0.33 0.87,-0.342 1.218,-0.027 l 9.88,8.903 c 0.187,0.168 0.293,0.407 0.293,0.659 v 5.738 c 0,0.49 -0.397,0.887 -0.887,0.887 h -9.88 c -0.226,0 -0.442,-0.086 -0.607,-0.24 L 9.815,21.56 1.547,30.764 c -0.175,0.195 -0.417,0.294 -0.66,0.294 z m 19.755,-1.773 h 8.642 v -4.457 l -8.964,-8.078 -6.348,6.275 6.67,6.26 z"
             style="fill:#4e9a06"
             inkscape:connector-curvature="0" />
        </g>
        <g
           id="g3058"
           style="fill:#4e9a06"
           transform="translate(-38.051245,0.45844874)">
          <path
             id="path3060"
             d="m 10.028,15.796 c -2.349,0 -4.26,-1.912 -4.26,-4.26 0,-2.349 1.911,-4.26 4.26,-4.26 2.349,0 4.259,1.911 4.259,4.26 0,2.348 -1.911,4.26 -4.259,4.26 z m 0,-6.744 c -1.37,0 -2.485,1.114 -2.485,2.484 0,1.369 1.115,2.484 2.485,2.484 1.37,0 2.484,-1.115 2.484,-2.484 0,-1.37 -1.115,-2.484 -2.484,-2.484 z"
             style="fill:#4e9a06"
             inkscape:connector-curvature="0" />
        </g>
        <g
           transform="translate(36.905123,0.45844874)"
           style="fill:#4e9a06"
           id="g3297">
          <path
             inkscape:connector-curvature="0"
             style="fill:#4e9a06"
             d="M 0.887,31.058 C 0.676,31.058 0.464,30.984 0.294,30.831 -0.07,30.504 -0.1,29.942 0.227,29.578 l 8.874,-9.88 c 0.16,-0.178 0.384,-0.283 0.623,-0.293 0.233,-0.012 0.471,0.076 0.645,0.238 l 2.308,2.166 6.991,-6.912 c 0.335,-0.33 0.87,-0.342 1.218,-0.027 l 9.88,8.903 c 0.187,0.168 0.293,0.407 0.293,0.659 v 5.738 c 0,0.49 -0.397,0.887 -0.887,0.887 h -9.88 c -0.226,0 -0.442,-0.086 -0.607,-0.24 L 9.815,21.56 1.547,30.764 c -0.175,0.195 -0.417,0.294 -0.66,0.294 z m 19.755,-1.773 h 8.642 v -4.457 l -8.964,-8.078 -6.348,6.275 6.67,6.26 z"
             id="path3299" />
        </g>
        <g
           transform="translate(36.905123,0.45844874)"
           style="fill:#4e9a06"
           id="g3301">
          <path
             inkscape:connector-curvature="0"
             style="fill:#4e9a06"
             d="m 10.028,15.796 c -2.349,0 -4.26,-1.912 -4.26,-4.26 0,-2.349 1.911,-4.26 4.26,-4.26 2.349,0 4.259,1.911 4.259,4.26 0,2.348 -1.911,4.26 -4.259,4.26 z m 0,-6.744 c -1.37,0 -2.485,1.114 -2.485,2.484 0,1.369 1.115,2.484 2.485,2.484 1.37,0 2.484,-1.115 2.484,-2.484 0,-1.37 -1.115,-2.484 -2.484,-2.484 z"
             id="path3303" />
        </g>
        <g
           id="g3305"
           style="fill:#4e9a06"
           transform="translate(-0.68767333,0.45844874)">
          <path
             id="path3307"
             d="M 0.887,31.058 C 0.676,31.058 0.464,30.984 0.294,30.831 -0.07,30.504 -0.1,29.942 0.227,29.578 l 8.874,-9.88 c 0.16,-0.178 0.384,-0.283 0.623,-0.293 0.233,-0.012 0.471,0.076 0.645,0.238 l 2.308,2.166 6.991,-6.912 c 0.335,-0.33 0.87,-0.342 1.218,-0.027 l 9.88,8.903 c 0.187,0.168 0.293,0.407 0.293,0.659 v 5.738 c 0,0.49 -0.397,0.887 -0.887,0.887 h -9.88 c -0.226,0 -0.442,-0.086 -0.607,-0.24 L 9.815,21.56 1.547,30.764 c -0.175,0.195 -0.417,0.294 -0.66,0.294 z m 19.755,-1.773 h 8.642 v -4.457 l -8.964,-8.078 -6.348,6.275 6.67,6.26 z"
             style="fill:#4e9a06"
             inkscape:connector-curvature="0" />
        </g>
        <g
           id="g3309"
           style="fill:#4e9a06"
           transform="translate(-0.68767333,0.45844874)">
          <path
             id="path3311"
             d="m 10.028,15.796 c -2.349,0 -4.26,-1.912 -4.26,-4.26 0,-2.349 1.911,-4.26 4.26,-4.26 2.349,0 4.259,1.911 4.259,4.26 0,2.348 -1.911,4.26 -4.259,4.26 z m 0,-6.744 c -1.37,0 -2.485,1.114 -2.485,2.484 0,1.369 1.115,2.484 2.485,2.484 1.37,0 2.484,-1.115 2.484,-2.484 0,-1.37 -1.115,-2.484 -2.484,-2.484 z"
             style="fill:#4e9a06"
             inkscape:connector-curvature="0" />
        </g>
      </g>
      <g
         id="g3062"
         style="fill:#4e9a06" />
      <g
         id="g3064"
         style="fill:#4e9a06" />
      <g
         id="g3066"
         style="fill:#4e9a06" />
      <g
         id="g3068"
         style="fill:#4e9a06" />
      <g
         id="g3070"
         style="fill:#4e9a06" />
      <g
         id="g3072"
         style="fill:#4e9a06" />
      <g
         id="g3074"
         style="fill:#4e9a06" />
      <g
         id="g3076"
         style="fill:#4e9a06" />
      <g
         id="g3078"
         style="fill:#4e9a06" />
      <g
         id="g3080"
         style="fill:#4e9a06" />
      <g
         id="g3082"
         style="fill:#4e9a06" />
      <g
         id="g3084"
         style="fill:#4e9a06" />
      <g
         id="g3086"
         style="fill:#4e9a06" />
      <g
         id="g3088"
         style="fill:#4e9a06" />
      <g
         id="g3090"
         style="fill:#4e9a06" />
    </g>
    <rect
       style="opacity:0.32209742;fill:#204a87;fill-opacity:1;stroke:none"
       id="rect3492"
       width="147.08998"
       height="147.48227"
       x="295.73694"
       y="341.21478" />
    <path
       style="fill:#2e3436;fill-opacity:1;stroke:none"
       d="m 462.91106,351.70899 37.84375,0 0,0.0312 18.0625,0 -8.96875,-5.1875 -9.09375,-5.21875 0,7.71875 -37.84375,0 0,2.65625 z"
       id="path4399"
       inkscape:connector-curvature="0" />
    <path
       inkscape:connector-curvature="0"
       id="path4401"
       d="m 273.10302,351.70899 -37.84375,0 0,0.0312 -18.0625,0 8.96875,-5.1875 9.09375,-5.21875 0,7.71875 37.84375,0 0,2.65625 z"
       style="fill:#2e3436;fill-opacity:1;stroke:none" />
  </g>
</svg>
